<svg version="1.1" id="icon-dribbble" xmlns="http://www.w3.org/2000/svg" xmlns:xlink="http://www.w3.org/1999/xlink" x="0px" y="0px" width="20px" height="20px" viewBox="-201.28 66.582 20 19.974" enable-background="new -201.28 66.582 20 19.974" xml:space="preserve" aria-labelledby="drib-title drib-desc">
<title  id="drib-title">Dribbble</title>
<desc  id="drib-desc">Dribblers be dribbblin'</desc>
<path d="M-191.28,86.555c-5.514,0-10-4.479-10-9.986s4.486-9.987,10-9.987
	c5.514,0,10,4.48,10,9.987S-185.766,86.555-191.28,86.555L-191.28,86.555z M-182.847,77.936c-0.292-0.093-2.644-0.793-5.32-0.365
	c1.117,3.066,1.572,5.563,1.659,6.082C-184.591,82.359-183.227,80.309-182.847,77.936L-182.847,77.936z M-187.943,84.434
	c-0.127-0.749-0.623-3.356-1.822-6.469c-0.019,0.006-0.038,0.013-0.057,0.019c-4.817,1.677-6.547,5.014-6.701,5.327
	c1.448,1.128,3.269,1.801,5.243,1.801C-190.097,85.112-188.969,84.871-187.943,84.434L-187.943,84.434z M-197.626,82.285
	c0.194-0.33,2.538-4.207,6.943-5.629c0.111-0.035,0.223-0.069,0.336-0.102c-0.214-0.484-0.448-0.97-0.692-1.447
	c-4.266,1.275-8.405,1.222-8.779,1.214c-0.002,0.087-0.004,0.174-0.004,0.261C-199.822,78.773-198.99,80.773-197.626,82.285
	L-197.626,82.285z M-199.641,74.834c0.382,0.005,3.901,0.021,7.896-1.039c-1.415-2.513-2.941-4.625-3.167-4.934
	C-197.301,69.988-199.087,72.188-199.641,74.834L-199.641,74.834z M-193.282,68.289c0.236,0.315,1.788,2.426,3.187,4.994
	c3.038-1.138,4.323-2.863,4.477-3.082c-1.508-1.336-3.492-2.149-5.662-2.149C-191.969,68.051-192.639,68.134-193.282,68.289
	L-193.282,68.289z M-184.668,71.187c-0.18,0.243-1.611,2.076-4.77,3.363c0.199,0.407,0.39,0.82,0.567,1.236
	c0.063,0.147,0.124,0.294,0.184,0.439c2.842-0.356,5.666,0.216,5.948,0.275C-182.758,74.488-183.479,72.639-184.668,71.187
	L-184.668,71.187z"/>
</svg>
