<svg version="1.1" id="icon-hub" xmlns="http://www.w3.org/2000/svg" xmlns:xlink="http://www.w3.org/1999/xlink" x="0px" y="0px" width="20px" height="19.506px" viewBox="-113.123 -14.864 20 19.506" enable-background="new -113.123 -14.864 20 19.506" xml:space="preserve" aria-labelledby="hub-title hub-desc">
<title  id="hub-title">Github</title>
<desc  id="hub-desc">Codes and internets</desc>
<path d="M-103.123-14.864c-5.522,0-10,4.477-10,10.001
	c0,4.417,2.865,8.165,6.839,9.487c0.5,0.092,0.682-0.217,0.682-0.482c0-0.237-0.008-0.865-0.013-1.7
	c-2.782,0.604-3.369-1.34-3.369-1.34c-0.455-1.156-1.11-1.463-1.11-1.463c-0.908-0.621,0.069-0.608,0.069-0.608
	c1.003,0.071,1.532,1.03,1.532,1.03c0.892,1.529,2.34,1.087,2.91,0.831c0.091-0.646,0.349-1.086,0.635-1.337
	c-2.221-0.251-4.555-1.11-4.555-4.942c0-1.091,0.39-1.984,1.029-2.684c-0.103-0.253-0.446-1.27,0.098-2.646
	c0,0,0.84-0.269,2.75,1.025c0.798-0.222,1.653-0.333,2.503-0.337c0.849,0.004,1.705,0.115,2.503,0.337
	c1.909-1.293,2.748-1.025,2.748-1.025c0.545,1.376,0.202,2.393,0.1,2.646c0.641,0.699,1.028,1.592,1.028,2.684
	c0,3.841-2.338,4.687-4.566,4.935c0.359,0.308,0.679,0.918,0.679,1.851c0,1.337-0.012,2.416-0.012,2.743
	c0,0.267,0.18,0.579,0.688,0.481c3.97-1.325,6.833-5.07,6.833-9.486C-93.123-10.387-97.6-14.864-103.123-14.864z"/>
</svg>
