<svg version="1.1" id="icon-insta" xmlns="http://www.w3.org/2000/svg" xmlns:xlink="http://www.w3.org/1999/xlink" x="0px" y="0px" width="20px" height="20px" viewBox="-170.53 37.338 20 19.997" enable-background="new -170.53 37.338 20 19.997" xml:space="preserve" aria-labelledby="insta-title insta-desc">
<title  id="insta-title">Instagram</title>
<desc  id="insta-desc">Pictures of my dog</desc>
<g>
	<g>
		<path d="M-170.53,55.307c0-5.312,0-10.625,0-15.938c0.013-0.043,0.029-0.086,0.039-0.13c0.208-0.97,0.793-1.581,1.75-1.84
			c0.081-0.021,0.162-0.041,0.243-0.062c5.313,0,10.625,0,15.938,0c0.036,0.012,0.072,0.028,0.109,0.036
			c0.981,0.2,1.598,0.787,1.86,1.751c0.022,0.081,0.042,0.162,0.062,0.244c0,5.312,0,10.625,0,15.938
			c-0.014,0.049-0.032,0.098-0.042,0.148c-0.201,1.081-1.148,1.878-2.25,1.879c-5.139,0.002-10.278,0.002-15.417,0
			c-1.054-0.001-1.961-0.721-2.219-1.746C-170.481,55.494-170.506,55.401-170.53,55.307z M-168.226,45.81c0,0.08,0,0.15,0,0.22
			c0,2.708,0,5.416,0,8.123c0,0.572,0.308,0.881,0.879,0.881c4.543,0,9.087,0,13.63,0c0.574,0,0.882-0.308,0.882-0.878
			c0-2.708,0-5.416,0-8.123c0-0.07,0-0.14,0-0.216c-0.587,0-1.153,0-1.737,0c0.294,1.228,0.254,2.42-0.167,3.592
			c-0.42,1.172-1.133,2.131-2.131,2.872c-0.999,0.74-2.122,1.145-3.367,1.197c-1.716,0.071-3.229-0.457-4.473-1.637
			c-1.741-1.652-2.284-3.688-1.791-6.031C-167.078,45.81-167.64,45.81-168.226,45.81z M-160.529,43.491
			c-2.125-0.002-3.854,1.727-3.849,3.851c0.005,2.123,1.709,3.831,3.836,3.844c2.121,0.012,3.851-1.709,3.859-3.841
			C-156.675,45.222-158.4,43.493-160.529,43.491z M-152.835,41.556c0-0.37,0.002-0.741,0-1.112c-0.004-0.469-0.329-0.798-0.8-0.801
			c-0.748-0.005-1.497-0.005-2.245-0.001c-0.46,0.003-0.792,0.301-0.802,0.757c-0.016,0.78-0.015,1.562,0,2.342
			c0.009,0.435,0.312,0.739,0.746,0.748c0.781,0.016,1.562,0.016,2.342,0c0.457-0.009,0.754-0.343,0.757-0.8
			C-152.833,42.311-152.835,41.934-152.835,41.556z"/>
	</g>
</g>
</svg>
