<?xml version="1.0" standalone="no"?>
<!DOCTYPE svg PUBLIC "-//W3C//DTD SVG 20010904//EN"
 "http://www.w3.org/TR/2001/REC-SVG-20010904/DTD/svg10.dtd">
<svg version="1.0" xmlns="http://www.w3.org/2000/svg"
 width="260.000000pt" height="260.000000pt" viewBox="0 0 260.000000 260.000000"
 preserveAspectRatio="xMidYMid meet">
<metadata>
Created by potrace 1.11, written by Peter Selinger 2001-2013
</metadata>
<g transform="translate(0.000000,260.000000) scale(0.100000,-0.100000)"
fill="#000000" stroke="none">
<path d="M1034 2464 c-35 -15 -164 -44 -193 -44 -12 0 -29 -4 -39 -9 -9 -5
-39 -19 -67 -32 -152 -68 -331 -172 -373 -215 -13 -14 -41 -36 -63 -49 -21
-14 -39 -32 -39 -41 0 -8 -19 -37 -41 -63 -66 -77 -166 -264 -173 -324 -1 -12
-8 -32 -14 -43 -15 -28 -34 -151 -29 -189 7 -48 21 -74 64 -120 17 -17 17 -45
1 -45 -26 0 -40 -19 -50 -61 -13 -65 -19 -207 -8 -214 6 -4 10 -13 10 -21 0
-9 11 -30 25 -48 26 -34 32 -56 16 -56 -14 0 -39 -43 -46 -81 -13 -63 -14
-226 -2 -259 14 -37 93 -121 134 -143 15 -8 53 -28 83 -45 52 -29 210 -86 266
-96 14 -3 40 -10 57 -15 18 -6 64 -15 102 -20 39 -5 88 -14 110 -20 22 -5 81
-12 130 -15 50 -2 101 -9 115 -14 33 -12 547 -12 580 0 14 5 61 12 105 14 44
3 101 6 128 8 26 2 58 8 70 13 20 10 97 27 172 39 17 3 46 11 65 18 19 7 53
17 75 20 42 8 142 53 210 95 97 59 117 77 149 130 32 54 33 60 34 164 1 102
-1 111 -31 169 l-31 61 28 51 c36 64 48 201 21 242 -9 14 -14 28 -11 33 7 11
-23 51 -39 51 -28 0 -27 22 3 53 16 18 35 43 42 56 18 35 23 137 9 179 -16 46
-16 46 -18 82 0 17 -10 39 -20 49 -11 11 -25 39 -32 63 -7 24 -18 50 -25 58
-6 8 -20 31 -29 50 -40 79 -179 250 -204 250 -5 0 -13 9 -16 21 -4 11 -16 24
-28 30 -12 5 -53 34 -92 64 -38 30 -77 55 -86 55 -9 0 -27 8 -40 19 -24 19
-141 69 -178 76 -11 2 -29 8 -40 14 -11 6 -36 11 -56 11 -19 0 -46 7 -59 15
-13 9 -39 15 -57 15 -47 -1 -93 5 -109 15 -23 14 -433 13 -466 -1z"/>
</g>
</svg>
