<?xml version="1.0" standalone="no"?>
<!DOCTYPE svg PUBLIC "-//W3C//DTD SVG 20010904//EN"
 "http://www.w3.org/TR/2001/REC-SVG-20010904/DTD/svg10.dtd">
<svg version="1.0" xmlns="http://www.w3.org/2000/svg"
 width="630.000000pt" height="630.000000pt" viewBox="0 0 630.000000 630.000000"
 preserveAspectRatio="xMidYMid meet">
<metadata>
Created by potrace 1.14, written by Peter Selinger 2001-2017
</metadata>
<g transform="translate(0.000000,630.000000) scale(0.100000,-0.100000)"
fill="#000000" stroke="none">
<path d="M406 6149 c-7 -167 2 -439 16 -439 4 0 8 -20 8 -45 0 -25 -4 -45 -10
-45 -5 0 -10 -22 -10 -50 0 -27 5 -50 10 -50 6 0 10 -26 10 -57 0 -32 3 -109
7 -170 6 -108 7 -113 28 -113 23 0 35 22 35 68 0 13 6 22 15 22 13 0 15 49 15
378 0 209 -3 440 -7 515 l-6 137 -52 0 -52 0 -7 -151z"/>
<path d="M938 6224 c-3 -50 -10 -79 -19 -85 -8 -5 -10 -9 -4 -9 5 0 4 -5 -3
-12 -7 -7 -12 -25 -12 -40 0 -18 -5 -28 -15 -28 -11 0 -15 -12 -15 -45 0 -33
-4 -45 -15 -45 -10 0 -15 -11 -15 -35 0 -24 -5 -35 -15 -35 -11 0 -15 -12 -15
-45 0 -33 -4 -45 -15 -45 -11 0 -15 -12 -15 -45 0 -26 -5 -47 -14 -52 -7 -4
-16 -32 -19 -62 -4 -30 -10 -57 -15 -60 -5 -3 -12 -24 -15 -45 -4 -22 -11 -43
-18 -46 -6 -4 -14 -28 -16 -54 -3 -25 -9 -46 -13 -46 -4 0 -10 -54 -14 -121
-5 -86 -11 -125 -21 -136 -9 -9 -15 -34 -15 -64 0 -37 -4 -49 -15 -49 -12 0
-15 -16 -15 -80 0 -61 -3 -80 -14 -80 -9 0 -15 -17 -18 -56 -3 -31 -9 -59 -15
-62 -6 -4 -13 -45 -16 -91 -3 -46 -10 -87 -15 -90 -6 -3 -14 -40 -18 -81 -4
-41 -11 -78 -16 -81 -5 -3 -11 -30 -15 -60 -3 -30 -10 -57 -15 -60 -5 -3 -12
-32 -15 -65 -3 -32 -10 -62 -15 -65 -5 -3 -12 -32 -15 -65 -3 -32 -10 -62 -15
-65 -4 -3 -11 -43 -15 -90 -4 -54 -11 -87 -19 -92 -8 -4 -14 -21 -14 -37 0
-20 -5 -30 -15 -30 -11 0 -15 -12 -15 -45 0 -33 4 -45 15 -45 13 0 21 -25 16
-52 0 -5 6 -8 14 -8 12 0 15 -17 15 -94 0 -67 -4 -96 -12 -98 -9 -3 -14 -35
-16 -96 -3 -71 -7 -92 -18 -92 -12 0 -14 -38 -14 -220 0 -189 -2 -220 -15
-220 -13 0 -15 -31 -15 -215 0 -184 -2 -215 -15 -215 -12 0 -15 -17 -15 -95 0
-57 4 -95 10 -95 12 0 14 -117 1 -124 -4 -3 -10 -74 -13 -157 -4 -114 -8 -153
-19 -160 -12 -8 -12 -10 1 -19 13 -8 15 -54 15 -315 0 -213 -3 -308 -11 -313
-6 -4 -13 -31 -16 -61 -3 -29 -10 -56 -16 -60 -6 -4 -14 -27 -18 -51 -4 -25
-12 -48 -18 -52 -6 -4 -12 -39 -14 -77 -3 -52 -8 -71 -18 -71 -9 0 -14 -12
-14 -35 0 -24 -5 -35 -15 -35 -11 0 -15 -12 -15 -45 0 -33 -4 -45 -15 -45 -12
0 -15 -18 -15 -100 0 -75 -3 -99 -12 -97 -9 1 -14 -16 -16 -56 -2 -42 -7 -57
-17 -57 -12 0 -15 -22 -15 -125 l0 -125 1019 0 c590 0 1022 4 1025 9 9 14 -20
21 -86 21 l-60 0 5 30 c9 41 0 58 -34 65 -28 6 -29 9 -29 66 0 46 3 59 15 59
8 0 15 7 15 15 0 8 7 15 15 15 8 0 15 6 15 14 0 7 9 16 21 19 12 3 18 10 14
16 -4 7 7 11 29 11 36 0 66 21 66 46 0 8 7 14 15 14 8 0 15 7 15 15 0 8 7 15
15 15 8 0 15 7 15 15 0 8 7 15 15 15 8 0 15 9 15 20 0 11 7 20 15 20 8 0 15 5
15 10 0 6 5 10 10 10 6 0 19 9 30 20 11 11 29 20 40 20 11 0 20 7 20 15 0 8 4
15 10 15 30 0 -18 57 -52 62 -15 2 -24 11 -26 25 -2 14 -8 20 -18 16 -8 -3
-14 0 -14 6 0 6 7 11 15 11 10 0 15 11 15 35 0 24 -5 35 -15 35 -8 0 -15 9
-15 20 0 13 -5 18 -15 14 -9 -4 -15 0 -15 10 0 9 -8 16 -20 16 -17 0 -20 -7
-20 -41 0 -24 -4 -38 -10 -34 -6 4 -10 -24 -10 -77 0 -108 -6 -128 -36 -128
-23 0 -28 10 -27 48 1 6 -6 12 -13 12 -8 0 -17 7 -20 15 -7 17 -34 21 -34 5 0
-5 -25 -10 -55 -10 -30 0 -55 4 -55 10 0 5 -30 10 -67 12 -64 3 -68 4 -71 28
-2 14 -10 29 -18 33 -15 9 -19 73 -7 140 4 26 9 34 14 25 6 -8 9 5 9 35 0 33
4 47 14 47 14 0 26 -29 26 -67 0 -13 5 -23 10 -23 6 0 10 -7 10 -16 0 -27 34
-11 35 16 4 88 4 88 35 95 28 6 30 10 30 52 0 37 -3 44 -16 39 -9 -3 -18 -6
-20 -6 -3 0 -2 -4 1 -10 3 -5 -1 -10 -9 -10 -9 0 -16 7 -16 15 0 8 -7 15 -15
15 -10 0 -15 10 -15 30 0 18 -6 33 -15 36 -8 4 -15 16 -15 28 0 37 -12 66 -26
66 -8 0 -14 10 -14 25 0 18 5 25 20 25 11 0 19 3 19 7 -5 29 3 34 61 32 43 -1
60 -6 60 -15 0 -17 27 -18 33 -1 4 9 6 9 6 0 1 -18 41 -16 55 2 15 20 55 8 62
-19 5 -21 54 -53 54 -35 0 5 25 9 56 9 34 0 53 4 49 10 -3 5 -2 10 4 10 5 0
12 -6 14 -12 4 -10 6 -10 6 0 1 14 147 18 153 3 2 -5 93 -12 203 -15 110 -3
201 -5 201 -6 1 0 4 -9 7 -21 4 -14 -1 -22 -16 -28 -12 -5 -28 -6 -34 -4 -7 3
-13 -1 -13 -9 0 -9 -14 -14 -42 -15 -65 -3 -83 -9 -83 -24 0 -10 17 -15 63
-17 50 -2 62 -6 63 -20 1 -9 2 -24 3 -32 0 -8 9 -14 18 -14 9 1 14 -4 12 -11
-3 -8 8 -15 31 -19 24 -5 33 -11 29 -19 -4 -7 1 -5 12 4 10 9 31 17 46 17 16
0 36 10 51 26 13 14 29 26 36 26 13 0 15 56 2 64 -5 4 -12 0 -14 -6 -3 -8 -6
-6 -6 5 -1 9 -8 17 -16 17 -8 0 -15 9 -15 21 0 13 -4 18 -12 13 -6 -4 -4 3 4
15 11 15 15 35 11 56 -5 30 -3 33 25 40 24 5 32 13 34 32 2 20 10 27 31 30 19
3 27 -1 27 -12 0 -13 25 -21 53 -16 4 0 7 -6 7 -14 0 -10 10 -15 29 -15 25 0
31 5 36 30 4 17 13 30 21 30 19 0 18 35 -1 54 -8 8 -15 32 -15 56 0 27 -5 43
-15 46 -8 4 -15 12 -15 20 0 9 -11 14 -29 14 -16 0 -31 5 -33 11 -2 6 -25 13
-51 16 -44 5 -47 8 -47 34 0 27 -2 28 -57 31 -66 3 -123 -10 -101 -23 10 -7 9
-9 -4 -9 -10 0 -18 6 -18 14 0 10 -18 15 -61 18 -33 2 -64 9 -67 15 -4 5 -25
13 -47 16 -22 4 -41 11 -43 17 -2 5 -26 12 -53 16 -27 4 -49 10 -49 15 0 5 -7
9 -15 9 -8 0 -15 7 -15 15 0 11 -11 15 -42 15 -81 0 -148 12 -148 26 0 9 -11
14 -30 14 -20 0 -30 5 -30 15 0 8 -7 15 -15 15 -8 0 -15 7 -15 15 0 8 -7 15
-15 15 -8 0 -15 7 -15 15 0 12 -16 15 -80 15 -64 0 -80 3 -80 15 0 10 11 15
35 15 19 0 38 -1 42 -2 9 -4 24 53 17 64 -3 4 -11 8 -19 8 -10 0 -13 9 -10 29
2 19 -3 34 -16 45 -24 20 -49 21 -49 1 0 -13 17 -20 41 -17 4 1 7 -10 7 -23 0
-14 -4 -22 -8 -20 -5 3 -10 1 -12 -5 -5 -14 -89 -24 -143 -15 l-47 7 6 51 c8
58 17 67 64 67 22 0 32 5 32 15 0 12 19 15 110 15 87 0 110 3 110 14 0 9 17
15 53 18 58 5 142 50 112 61 -49 19 20 41 97 31 43 -6 48 -9 48 -31 0 -18 4
-24 15 -19 8 3 15 1 15 -4 0 -17 90 -12 96 5 4 10 20 15 45 15 25 0 42 5 45
14 3 8 19 18 35 21 16 4 30 13 30 21 1 8 2 20 3 27 0 6 7 13 14 13 6 1 19 2
27 3 8 0 15 11 15 24 0 38 12 67 26 67 8 0 14 7 14 15 0 8 5 15 10 15 6 0 10
-7 10 -15 0 -8 6 -15 14 -15 9 0 17 -15 21 -40 7 -42 2 -60 -18 -60 -7 0 -14
-11 -15 -25 -2 -28 22 -35 32 -10 3 9 18 15 36 15 16 0 30 5 30 10 0 6 7 10
15 10 10 0 15 -10 15 -30 0 -20 5 -30 15 -30 10 0 15 -10 15 -29 0 -16 6 -36
14 -43 7 -8 17 -29 21 -46 3 -18 10 -32 14 -32 5 0 11 -19 14 -41 3 -23 11
-45 17 -49 7 -4 15 -28 17 -54 4 -30 10 -46 19 -46 8 0 14 -7 14 -15 0 -8 6
-15 14 -15 8 0 14 -11 14 -26 0 -15 7 -31 16 -36 9 -5 14 -14 10 -19 -3 -6 3
-13 13 -15 10 -3 20 -15 20 -26 1 -12 8 -25 15 -29 10 -7 15 3 22 36 5 25 13
45 18 45 4 0 8 36 8 81 0 58 -4 85 -15 95 -8 9 -15 24 -15 35 0 10 -7 19 -15
19 -8 0 -15 -7 -15 -15 0 -8 -7 -15 -15 -15 -11 0 -15 12 -15 45 0 33 -4 45
-15 45 -10 0 -15 10 -15 29 0 17 -4 33 -10 36 -5 3 -14 24 -20 45 -6 22 -15
40 -20 40 -6 0 -10 9 -10 20 0 11 -7 20 -15 20 -8 0 -15 7 -15 15 0 8 -9 23
-20 32 -11 10 -20 30 -20 46 0 16 -7 35 -15 43 -9 9 -15 34 -15 60 0 32 -4 44
-15 44 -8 0 -15 -4 -15 -10 0 -5 -7 -10 -16 -10 -8 0 -12 5 -9 11 4 6 -2 13
-14 16 -14 4 -21 13 -21 30 0 16 -7 27 -20 30 -11 3 -20 12 -20 19 0 10 -13
14 -45 14 -33 0 -45 4 -45 15 0 8 -7 15 -15 15 -8 0 -15 6 -15 14 0 8 -13 17
-30 21 -16 4 -30 11 -30 16 0 15 -120 11 -136 -5 -7 -8 -23 -12 -34 -9 -23 6
-27 23 -6 23 16 0 27 47 19 79 -5 19 -10 21 -35 15 l-30 -6 4 54 3 53 -32 -3
c-32 -4 -33 -3 -33 32 0 25 -4 36 -15 36 -8 0 -16 7 -16 15 -1 8 -2 21 -3 28
0 6 -7 13 -13 13 -7 1 -17 2 -22 3 -5 0 -7 11 -3 23 3 14 2 19 -6 14 -8 -5
-12 3 -12 23 0 21 5 31 15 31 8 0 15 7 15 15 0 10 10 15 30 15 27 0 30 -3 30
-30 0 -19 5 -30 14 -30 8 0 17 -7 20 -16 14 -36 27 2 26 74 -2 116 -1 122 15
122 8 0 15 9 15 20 0 11 -7 20 -15 20 -8 0 -15 9 -15 19 0 38 10 48 41 43 20
-3 34 0 40 9 6 9 9 -4 9 -37 0 -60 14 -77 62 -72 27 2 33 7 35 30 1 15 -4 29
-13 32 -21 8 -19 92 2 100 14 5 16 17 11 74 -6 74 3 147 18 147 6 0 9 6 9 13
-1 6 7 12 17 12 10 0 19 7 19 15 0 8 7 15 15 15 8 0 15 7 15 15 0 8 6 15 14
15 8 0 17 15 20 35 4 19 11 35 16 35 6 0 10 7 10 15 0 8 6 15 14 15 8 0 16 7
20 15 3 8 9 15 13 14 28 -5 53 3 53 16 0 10 10 15 30 15 29 0 30 -2 30 -45 0
-33 4 -45 15 -45 10 0 15 -10 15 -30 0 -20 -5 -30 -15 -30 -8 0 -15 -9 -15
-20 0 -16 7 -20 30 -20 20 0 30 -5 30 -15 0 -8 7 -15 15 -15 8 0 15 -7 15 -15
0 -8 7 -15 15 -15 8 0 15 -7 15 -15 0 -9 7 -18 15 -21 25 -10 17 -24 -14 -24
-66 0 -84 -77 -23 -95 26 -7 32 -14 32 -37 0 -29 13 -33 91 -28 19 1 28 -5 32
-20 3 -12 10 -19 16 -15 6 3 11 -1 11 -9 0 -11 10 -16 34 -16 19 0 41 -7 50
-15 8 -8 22 -15 30 -15 9 0 16 -6 16 -14 0 -8 16 -16 40 -20 23 -3 39 -10 36
-15 -3 -5 12 -11 34 -15 22 -3 40 -10 40 -15 0 -5 14 -13 32 -16 17 -4 38 -14
46 -21 8 -9 36 -14 77 -14 41 0 65 -4 67 -12 7 -20 137 -23 182 -4 33 14 37
14 32 1 -8 -22 149 -22 161 0 6 10 30 16 77 19 38 2 71 8 75 13 3 6 26 13 51
16 24 3 46 11 48 16 2 6 15 11 28 11 14 0 27 7 30 15 4 8 12 15 20 15 8 0 22
9 31 20 10 11 23 20 30 20 8 0 13 12 13 30 0 29 1 30 50 30 38 0 50 4 50 15 0
14 26 20 78 18 7 -1 12 11 12 28 0 23 5 29 21 29 13 0 18 -4 13 -12 -6 -10 -4
-10 7 0 7 6 28 12 46 12 23 0 33 5 33 15 0 11 11 15 40 15 30 0 40 -4 40 -16
0 -11 5 -14 16 -10 9 3 21 6 27 7 7 0 3 4 -8 9 -17 7 -15 9 11 9 19 1 34 7 38
17 3 8 9 13 14 10 4 -2 29 0 54 5 40 9 48 14 53 40 8 37 22 37 30 -1 4 -16 11
-32 16 -35 5 -4 9 -33 9 -66 0 -59 0 -59 30 -59 17 0 30 -5 30 -12 4 -107 -1
-223 -9 -226 -18 -6 -14 -72 4 -72 10 0 15 10 15 31 0 45 24 31 28 -16 2 -22
1 -54 -3 -72 -5 -27 -11 -33 -30 -33 -14 0 -25 5 -25 11 0 6 -8 3 -17 -7 -11
-10 -18 -38 -21 -75 -3 -41 -9 -59 -18 -59 -8 0 -14 -7 -14 -15 0 -8 -7 -15
-15 -15 -12 0 -15 -13 -15 -60 0 -47 -3 -60 -15 -60 -8 0 -15 -7 -15 -15 0 -8
-7 -15 -15 -15 -10 0 -15 -10 -15 -29 0 -25 -5 -31 -30 -36 -16 -4 -30 -13
-30 -21 0 -8 -7 -14 -15 -14 -8 0 -15 -7 -15 -15 0 -8 -6 -15 -14 -15 -8 0
-17 -12 -21 -27 -3 -15 -11 -31 -17 -34 -5 -3 -12 -40 -14 -80 -2 -41 -8 -75
-14 -77 -5 -2 -10 -10 -10 -17 0 -18 -44 -45 -75 -45 -21 0 -25 -5 -25 -30 0
-20 -5 -30 -15 -30 -9 0 -15 -6 -14 -13 1 -6 1 -36 0 -64 -1 -39 -5 -53 -15
-53 -8 0 -17 -14 -21 -30 -5 -23 -12 -30 -30 -30 -12 0 -25 -6 -28 -14 -3 -8
-19 -17 -36 -21 -17 -4 -31 -11 -31 -16 0 -5 -7 -9 -15 -9 -8 0 -15 -7 -15
-15 0 -8 -7 -15 -15 -15 -10 0 -15 -10 -15 -30 0 -26 -3 -30 -29 -30 -25 0
-30 -5 -35 -35 -6 -31 -11 -35 -36 -35 -24 0 -30 -4 -30 -21 0 -11 -4 -18 -9
-15 -11 7 -21 -28 -21 -81 0 -32 4 -43 15 -43 11 0 15 -11 15 -37 0 -62 10
-83 36 -83 15 0 24 -6 24 -15 0 -8 9 -15 20 -15 12 0 20 -7 20 -16 0 -10 6
-14 15 -10 12 4 15 -3 15 -34 0 -34 3 -40 21 -40 15 0 19 -4 15 -16 -3 -9 -6
-22 -6 -30 0 -8 -7 -14 -15 -14 -8 0 -15 -7 -15 -15 0 -8 -4 -15 -10 -15 -5 0
-7 -7 -4 -15 5 -11 -1 -15 -20 -15 -23 0 -26 -4 -26 -37 0 -50 -10 -83 -24
-83 -6 0 -11 -18 -12 -42 0 -23 -5 -43 -12 -46 -6 -2 -14 -19 -18 -38 -3 -19
-10 -34 -14 -34 -5 0 -11 -13 -15 -30 -4 -16 -10 -30 -15 -30 -4 0 -10 -9 -13
-20 -3 -11 -12 -20 -21 -20 -10 0 -16 -9 -16 -24 0 -13 -7 -26 -15 -30 -9 -3
-15 -18 -15 -36 0 -20 -5 -30 -15 -30 -8 0 -15 -7 -15 -15 0 -8 -7 -15 -15
-15 -10 0 -15 -10 -15 -30 0 -16 -4 -30 -10 -30 -5 0 -10 5 -10 12 0 6 -3 8
-7 4 -5 -4 -8 -22 -8 -39 0 -18 -5 -33 -10 -35 -6 -2 -13 -12 -17 -23 -4 -10
-14 -19 -23 -19 -8 0 -15 -4 -15 -10 0 -5 -7 -10 -15 -10 -8 0 -15 -9 -15 -20
0 -11 -7 -20 -15 -20 -8 0 -15 -7 -15 -15 0 -8 -7 -15 -15 -15 -8 0 -15 -7
-15 -15 0 -8 -6 -15 -13 -15 -24 0 -47 -39 -47 -79 0 -35 -3 -40 -29 -46 -20
-4 -31 -14 -35 -31 -4 -13 -11 -24 -16 -24 -6 0 -10 -9 -10 -20 0 -11 -7 -20
-15 -20 -8 0 -15 -6 -15 -14 0 -8 -9 -18 -20 -21 -11 -3 -20 -11 -20 -16 0 -5
-7 -9 -15 -9 -8 0 -15 -7 -15 -15 0 -8 -7 -15 -15 -15 -8 0 -15 -7 -15 -15 0
-10 -10 -15 -27 -15 -17 0 -38 -11 -52 -25 -12 -14 -28 -22 -33 -19 -6 4 -14
1 -18 -5 -3 -7 -31 -14 -61 -15 -29 -2 -55 -9 -57 -15 -2 -6 -10 -11 -18 -11
-9 0 -14 -11 -14 -35 0 -34 -1 -35 -42 -35 -51 0 -88 -9 -88 -21 0 -5 118 -9
265 -9 236 0 267 2 285 17 11 10 20 23 20 30 0 8 12 13 30 13 19 0 30 5 30 14
0 8 14 17 30 21 17 4 30 11 30 16 0 5 7 9 15 9 9 0 18 7 21 15 4 8 12 15 20
15 8 0 22 9 31 20 10 11 21 20 26 20 5 0 15 7 23 15 9 8 24 15 35 15 10 0 19
7 19 15 0 8 7 15 15 15 8 0 15 7 15 15 0 8 9 15 20 15 11 0 20 7 20 15 0 9 9
15 25 15 16 0 25 6 25 15 0 8 6 15 13 15 7 0 24 13 38 29 14 15 34 31 46 35
12 4 24 13 27 21 3 8 12 15 21 15 8 0 15 7 15 15 0 8 7 15 15 15 8 0 15 7 15
16 0 18 27 43 47 44 18 0 53 32 53 47 0 7 7 13 15 13 8 0 15 7 15 15 0 9 9 15
24 15 19 0 26 7 31 29 5 22 14 31 36 36 16 4 29 13 29 21 0 8 5 14 10 14 13 0
50 37 50 50 0 6 7 10 15 10 9 0 18 7 21 15 4 8 12 15 20 15 8 0 14 7 14 15 0
8 7 15 15 15 8 0 15 7 15 15 0 8 7 15 15 15 8 0 15 7 15 15 0 10 10 15 30 15
28 0 30 3 30 35 0 24 5 35 15 35 8 0 15 6 15 14 0 19 27 46 46 46 9 0 14 -11
14 -35 0 -24 -5 -35 -15 -35 -8 0 -14 -3 -14 -7 5 -28 -3 -53 -16 -53 -10 0
-15 -10 -15 -30 0 -20 -5 -30 -15 -30 -10 0 -15 -10 -15 -30 0 -20 -5 -30 -15
-30 -11 0 -15 -11 -15 -42 0 -54 -10 -89 -21 -82 -5 3 -9 -11 -9 -30 0 -20 5
-36 10 -36 6 0 10 -7 10 -15 0 -8 -4 -15 -10 -15 -5 0 -10 -7 -10 -15 0 -8 -7
-15 -15 -15 -10 0 -15 -10 -15 -30 0 -18 -6 -33 -15 -36 -8 -4 -15 -16 -15
-28 0 -12 -9 -29 -20 -39 -11 -9 -20 -26 -20 -37 0 -11 -7 -20 -15 -20 -8 0
-15 -7 -15 -15 0 -8 -7 -15 -15 -15 -8 0 -15 -7 -15 -15 0 -8 -7 -15 -15 -15
-10 0 -15 -10 -15 -30 0 -28 3 -30 38 -31 20 -1 40 -1 45 0 4 0 7 -12 7 -29 0
-32 -26 -70 -47 -70 -7 0 -13 -7 -13 -15 0 -8 -7 -15 -15 -15 -10 0 -15 -10
-15 -30 0 -31 0 -31 65 -34 18 -1 29 -6 27 -13 -1 -10 150 -13 733 -13 l735 0
0 3150 0 3150 -1235 0 c-1091 0 -1235 -2 -1235 -15 0 -8 9 -15 19 -15 11 0 26
-7 35 -15 19 -19 46 -19 46 0 0 9 6 12 15 9 8 -4 15 -16 15 -29 0 -19 7 -23
43 -28 23 -3 58 -4 76 -1 19 3 49 3 67 -1 l34 -6 0 -59 c0 -47 3 -60 15 -60
10 0 15 -10 15 -29 0 -25 5 -31 30 -36 17 -4 30 -11 30 -16 0 -5 7 -9 15 -9 8
0 15 -7 15 -15 0 -9 7 -18 15 -21 10 -4 15 -20 15 -50 0 -32 6 -49 20 -61 11
-10 20 -23 20 -30 0 -8 12 -13 31 -13 19 0 28 -4 24 -11 -4 -6 2 -13 14 -16
12 -3 21 -12 21 -19 0 -8 7 -14 15 -14 11 0 15 -12 15 -50 0 -38 4 -50 15 -50
8 0 15 -7 15 -15 0 -8 6 -15 14 -15 8 0 17 -13 21 -30 5 -23 12 -30 31 -30 15
0 24 -6 24 -15 0 -8 6 -15 14 -15 9 0 16 -12 18 -32 2 -18 7 -32 13 -30 12 5
23 -25 24 -65 1 -30 4 -33 31 -33 25 0 30 -4 30 -25 0 -21 -5 -25 -29 -25 -25
0 -30 -5 -35 -35 -4 -19 -11 -35 -16 -35 -6 0 -10 -7 -10 -15 0 -8 7 -15 15
-15 8 0 15 -7 15 -15 0 -8 7 -15 15 -15 8 0 15 -7 15 -15 0 -10 10 -15 30 -15
19 0 30 5 30 14 0 10 10 14 30 14 18 -1 30 -6 30 -15 0 -7 7 -13 15 -13 8 0
15 -9 15 -20 0 -11 9 -29 21 -41 17 -17 19 -28 13 -75 -4 -36 -11 -54 -20 -54
-16 0 -20 -85 -4 -95 6 -4 -1 -26 -16 -55 -14 -28 -25 -66 -26 -89 0 -28 -5
-41 -14 -41 -8 0 -14 -7 -14 -15 0 -8 -7 -15 -15 -15 -13 0 -15 -20 -14 -125
l2 -125 43 0 c42 0 44 -1 44 -30 0 -27 -3 -30 -30 -30 -20 0 -30 5 -30 15 0 8
-6 15 -14 15 -8 0 -16 7 -20 15 -3 8 -10 15 -16 15 -5 0 -10 -7 -10 -15 0 -8
-7 -15 -15 -15 -8 0 -15 -7 -15 -15 0 -10 -10 -15 -33 -15 -18 0 -43 -7 -56
-16 -22 -16 -24 -16 -33 0 -5 9 -16 16 -23 16 -8 0 -15 7 -15 15 0 9 -10 15
-26 15 -14 0 -23 -4 -19 -10 3 -5 1 -10 -4 -10 -7 0 -11 -38 -11 -104 0 -69
-4 -107 -12 -112 -7 -4 -8 -3 -4 4 4 7 2 12 -3 12 -6 0 -11 -20 -11 -45 0 -33
-4 -45 -15 -45 -8 0 -15 -9 -15 -20 0 -18 -4 -20 -42 -14 -24 4 -45 10 -48 14
-3 4 -18 10 -35 14 -16 4 -33 12 -36 18 -3 5 -25 12 -48 15 -25 4 -41 11 -41
19 0 10 -13 14 -44 14 -24 0 -46 5 -48 11 -2 6 -32 13 -66 16 -44 4 -62 10
-62 20 0 8 -6 13 -12 12 -31 -4 -48 2 -48 16 0 10 -11 15 -35 15 -24 0 -35 5
-35 15 0 12 -13 15 -60 15 -47 0 -60 -3 -60 -15 0 -19 -36 -20 -43 -1 -3 7
-22 16 -41 20 -20 4 -36 11 -36 15 0 5 -21 11 -46 14 -26 2 -49 9 -53 15 -3 5
-44 12 -90 16 -46 4 -95 12 -108 17 -13 5 -63 12 -111 16 -48 3 -90 11 -94 17
-5 7 -58 12 -138 15 -71 1 -128 6 -125 11 5 8 -66 20 -116 20 -19 0 -29 -5
-29 -15 0 -12 -15 -15 -74 -15 -56 0 -75 4 -80 15 -3 8 -12 15 -21 15 -8 0
-15 6 -15 14 0 8 -6 16 -12 18 -24 9 -38 -4 -38 -36 0 -27 4 -32 22 -32 13 1
23 -3 24 -9 4 -25 17 -55 24 -55 14 0 20 -44 14 -96 -6 -51 -7 -52 -46 -58
-33 -6 -39 -10 -36 -29 2 -14 11 -23 26 -25 21 -3 23 -8 21 -68 -1 -46 -6 -64
-15 -64 -8 0 -14 -6 -14 -14 0 -8 -6 -17 -12 -19 -10 -4 -10 -6 0 -6 17 -1 15
-21 -3 -21 -8 0 -15 -7 -15 -15 0 -8 -7 -15 -15 -15 -8 0 -15 -7 -15 -16 0 -9
-7 -22 -16 -29 -14 -10 -17 -32 -17 -138 l1 -127 -29 0 c-27 0 -29 2 -29 41 0
22 -5 49 -10 60 -7 12 -7 19 -1 19 6 0 8 7 5 15 -9 22 -34 18 -34 -5 0 -11 0
-23 1 -26 0 -4 -5 -10 -12 -14 -8 -6 -12 -50 -12 -159 0 -143 -1 -151 -20
-151 -17 0 -19 6 -14 60 3 43 1 60 -8 60 -13 0 -25 -43 -25 -91 0 -19 -5 -29
-15 -29 -12 0 -15 -16 -15 -80 0 -64 -3 -80 -15 -80 -8 0 -15 -7 -15 -15 0 -8
-7 -15 -15 -15 -8 0 -16 -8 -16 -17 -1 -10 -2 -22 -4 -28 -1 -5 -3 -18 -3 -27
-1 -12 -10 -18 -27 -18 -15 0 -25 5 -24 13 4 29 -2 47 -15 47 -8 0 -15 -16
-18 -44 -3 -25 -13 -52 -22 -61 -9 -9 -16 -25 -16 -36 0 -11 -7 -19 -16 -19
-13 0 -15 -6 -9 -27 3 -16 11 -30 16 -31 5 -2 9 -24 9 -48 0 -30 5 -46 15 -50
11 -5 15 -22 15 -65 0 -46 3 -59 15 -59 8 0 15 -7 15 -15 0 -8 6 -15 14 -15 8
0 15 -15 19 -40 6 -48 -1 -80 -18 -80 -15 0 -95 -76 -95 -90 0 -5 -9 -10 -20
-10 -11 0 -20 -7 -20 -15 0 -8 -7 -15 -15 -15 -8 0 -15 -7 -15 -15 0 -8 -7
-15 -15 -15 -9 0 -18 -7 -21 -15 -9 -23 -76 -20 -97 5 -9 11 -17 25 -17 30 0
6 -9 10 -20 10 -15 0 -20 7 -20 29 0 25 -5 31 -30 36 -30 7 -42 25 -17 25 10
0 14 23 16 88 2 48 3 96 4 107 2 62 -4 95 -18 95 -10 0 -14 9 -13 25 1 14 8
25 15 25 8 0 13 12 13 30 0 16 6 33 14 37 7 5 16 32 18 63 3 30 11 56 17 58 6
2 11 21 11 42 0 22 7 45 16 54 8 9 18 33 21 53 3 21 12 42 20 46 7 4 13 25 13
46 0 25 5 41 15 45 9 3 15 18 15 36 0 20 5 30 15 30 8 0 15 7 15 15 0 8 7 15
15 15 12 0 15 16 15 80 0 66 3 80 16 80 8 0 12 5 9 11 -4 6 3 13 15 16 13 4
23 16 27 34 3 16 9 29 13 29 5 0 11 27 15 60 4 33 11 60 15 60 4 0 11 16 14
35 4 19 11 35 16 35 5 0 12 17 16 38 4 20 11 40 16 43 5 3 11 29 15 57 3 28 8
50 12 49 3 -1 16 7 29 18 17 15 22 30 22 68 0 33 5 49 15 53 8 4 15 15 15 25
0 10 -7 19 -15 19 -11 0 -15 12 -15 45 0 32 -4 45 -14 45 -10 0 -16 13 -18 38
-2 23 -8 36 -15 34 -7 -1 -13 5 -13 13 0 8 -7 15 -15 15 -13 0 -20 19 -16 43
1 5 -8 11 -19 14 -11 3 -20 10 -19 17 4 29 -2 46 -16 46 -8 0 -15 6 -15 14 0
8 -7 16 -15 20 -8 3 -15 17 -15 31 0 19 -5 25 -22 25 -39 0 -68 12 -68 26 0 9
-11 14 -30 14 -19 0 -30 5 -30 14 0 8 -8 22 -17 32 -13 12 -19 36 -20 78 -1
33 -7 62 -12 64 -14 5 -14 49 -1 57 6 3 10 19 10 36 0 16 -4 29 -10 29 -6 0
-10 54 -10 141 0 91 4 138 10 134 6 -3 10 -2 10 4 0 5 -4 13 -10 16 -5 3 -10
35 -10 71 0 36 4 64 10 64 6 0 10 14 10 31 0 22 5 32 20 36 17 5 20 14 20 64
0 46 3 59 15 59 8 0 15 9 15 21 0 11 4 18 9 14 17 -10 22 14 22 100 0 68 3 85
14 85 12 0 15 22 15 125 0 104 2 125 15 125 8 0 15 7 15 15 0 12 16 15 80 15
64 0 80 3 80 15 0 8 7 15 16 15 10 0 15 8 14 23 -5 55 0 65 30 72 28 6 30 10
30 51 l0 44 -604 0 -603 0 -5 -76z m682 -1174 c0 -20 5 -30 15 -30 10 0 15
-10 15 -34 0 -19 -7 -41 -15 -50 -9 -9 -15 -33 -15 -60 0 -48 -1 -49 -37 -40
-22 6 -23 11 -23 110 0 86 3 104 15 104 8 0 15 7 15 15 0 8 7 15 15 15 10 0
15 -10 15 -30z m8 -626 c12 -4 22 -13 22 -20 0 -8 7 -14 15 -14 9 0 15 -9 15
-24 0 -19 7 -26 29 -31 29 -6 41 -26 41 -72 0 -13 4 -23 9 -23 12 0 21 -40 15
-67 -4 -13 -12 -23 -20 -23 -8 0 -14 -6 -14 -14 0 -9 -18 -16 -55 -21 -30 -3
-57 -11 -60 -16 -10 -16 -65 -11 -65 6 0 8 -7 15 -15 15 -8 0 -15 4 -15 9 0 5
7 11 15 15 9 3 15 18 15 36 0 20 5 30 15 30 11 0 15 12 15 45 0 32 -4 45 -14
45 -16 0 -25 39 -18 75 2 14 11 25 18 25 8 0 14 7 14 15 0 17 4 18 38 9z
m-100 -86 c-3 -33 -22 -43 -65 -33 -16 4 -23 13 -23 29 0 28 11 34 58 35 31 1
33 -1 30 -31z m3492 -143 c0 -8 -7 -15 -15 -15 -8 0 -15 7 -15 15 0 8 7 15 15
15 8 0 15 -7 15 -15z m-1250 -155 c0 -5 12 -10 26 -10 14 0 23 4 20 9 -3 5 7
9 22 9 15 0 30 -4 33 -10 3 -5 23 -11 45 -15 21 -3 42 -11 46 -17 8 -13 11
-13 78 -15 37 -1 50 -5 50 -16 0 -11 12 -15 45 -15 33 0 45 -4 45 -15 0 -10
10 -15 30 -15 20 0 30 -5 30 -15 0 -8 6 -15 14 -15 8 0 17 -4 20 -8 9 -15 -6
-52 -20 -52 -10 0 -14 -13 -14 -39 0 -43 -13 -59 -34 -42 -7 6 -52 12 -98 14
-47 1 -92 7 -99 14 -8 6 -29 14 -46 18 -19 4 -33 13 -33 21 0 9 -11 14 -31 14
-21 0 -40 8 -54 24 -13 14 -39 27 -63 31 -26 4 -42 12 -42 21 0 9 -11 14 -30
14 -20 0 -30 5 -30 15 0 8 -7 15 -15 15 -8 0 -15 -7 -15 -15 0 -8 -7 -15 -15
-15 -8 0 -15 7 -15 15 0 8 -9 15 -20 15 -11 0 -20 7 -20 15 0 8 -4 15 -10 15
-5 0 -10 7 -10 15 0 12 13 15 60 15 47 0 60 3 60 15 0 11 12 15 45 15 25 0 45
-4 45 -10z m-378 -164 c15 -22 8 -34 -22 -41 -22 -5 -30 -12 -30 -28 0 -49
-11 -67 -41 -67 -19 0 -29 5 -29 15 0 8 -7 15 -16 15 -11 0 -14 8 -12 33 2 17
8 32 14 32 6 0 18 8 28 18 10 9 23 17 31 17 7 0 16 7 19 16 6 17 45 11 58 -10z
m968 -20 c0 -19 -17 -29 -25 -16 -4 6 -11 8 -16 5 -5 -4 -9 -2 -9 4 0 5 6 12
13 14 23 10 37 7 37 -7z m-2702 -115 c10 0 12 3 5 6 -18 7 -16 23 2 23 10 0
15 -10 15 -30 0 -26 -4 -30 -26 -30 -17 0 -28 -6 -31 -20 -3 -11 -10 -20 -15
-20 -5 0 -6 5 -2 12 4 7 3 8 -4 4 -7 -4 -12 -14 -12 -22 0 -8 -7 -14 -15 -14
-11 0 -15 12 -15 45 0 43 1 45 30 45 22 0 30 5 30 18 1 16 1 16 11 0 5 -10 18
-18 27 -17z m2022 -1 c0 -28 -3 -30 -35 -30 -24 0 -35 5 -35 14 0 32 13 46 41
46 26 0 29 -4 29 -30z m-2160 -15 c0 -8 -4 -15 -10 -15 -5 0 -10 7 -10 15 0 8
5 15 10 15 6 0 10 -7 10 -15z m2380 -31 c0 -8 7 -14 15 -14 8 0 15 -7 15 -15
0 -8 6 -15 14 -15 8 0 16 -14 18 -37 6 -45 1 -63 -17 -63 -7 0 -15 -4 -17 -10
-5 -14 -90 -23 -108 -10 -13 9 -13 11 0 19 11 8 14 28 12 82 -1 43 2 76 9 79
17 11 59 -1 59 -16z m-2440 -14 c0 -20 -5 -30 -15 -30 -8 0 -15 -7 -15 -15 0
-10 -10 -15 -30 -15 -29 0 -30 2 -29 43 0 23 3 36 6 30 7 -18 23 -16 23 2 0
10 10 15 30 15 27 0 30 -3 30 -30z m3778 -201 c-2 -6 -8 -10 -13 -10 -5 0 -11
4 -13 10 -2 6 4 11 13 11 9 0 15 -5 13 -11z m-3998 -101 c0 -9 4 -8 10 2 8 11
12 12 18 3 5 -8 41 -13 100 -15 l92 -2 0 -28 c0 -16 6 -31 14 -34 8 -3 17 -17
21 -32 4 -15 11 -29 15 -32 14 -9 16 -210 3 -218 -6 -4 -15 -20 -18 -35 -4
-15 -13 -27 -21 -27 -8 0 -14 -7 -14 -15 0 -8 -6 -15 -14 -15 -7 0 -16 -9 -19
-20 -3 -11 -9 -20 -14 -19 -22 4 -43 -2 -38 -11 3 -5 -3 -10 -14 -10 -12 0
-21 -7 -21 -15 0 -12 -14 -15 -65 -15 -51 0 -65 -3 -65 -15 0 -10 -10 -15 -30
-15 -20 0 -30 -5 -30 -15 0 -8 -7 -15 -15 -15 -8 0 -15 -9 -15 -20 0 -11 -7
-20 -15 -20 -16 0 -18 -10 -15 -77 1 -42 1 -43 -29 -43 -30 0 -31 1 -31 45 0
33 4 45 15 45 8 0 15 7 15 15 0 10 -11 15 -37 16 -21 1 -49 2 -63 3 l-25 1 0
105 c0 58 3 110 6 115 3 6 3 37 -1 70 -7 62 -4 85 11 85 5 0 9 7 9 15 0 8 7
15 15 15 9 0 18 12 22 30 5 28 9 30 49 30 32 0 44 4 44 15 0 8 7 15 15 15 10
0 15 10 15 31 0 17 4 28 10 24 6 -3 10 -2 10 4 0 5 -5 11 -12 13 -14 5 18 41
45 51 9 3 17 11 17 17 0 5 11 10 25 10 14 0 25 -6 25 -12z m1130 -148 c0 -5
-7 -10 -15 -10 -8 0 -15 5 -15 10 0 6 7 10 15 10 8 0 15 -4 15 -10z m3554
-456 c4 -20 4 -49 1 -65 -6 -27 -10 -29 -51 -29 l-44 0 0 41 c0 47 31 89 66
89 17 0 23 -8 28 -36z m-92 -456 c1 -112 0 -222 -1 -245 -2 -32 2 -45 13 -49
24 -9 20 -51 -5 -57 -26 -7 -79 2 -97 16 -9 7 -16 7 -24 -1 -14 -14 -68 -16
-68 -3 0 5 -16 12 -35 15 -21 4 -35 13 -35 21 0 8 -7 15 -15 15 -8 0 -15 5
-15 10 0 6 -7 10 -15 10 -12 0 -15 16 -15 80 0 62 3 80 14 80 8 0 17 11 20 25
4 14 11 25 16 25 6 0 10 14 10 31 0 32 34 79 58 79 8 0 12 19 12 59 0 55 2 59
25 65 14 4 48 4 75 0 41 -5 51 -4 56 10 17 46 24 -3 26 -186z m-3432 162 c0
-5 -7 -10 -15 -10 -8 0 -15 5 -15 10 0 6 7 10 15 10 8 0 15 -4 15 -10z m-1440
-156 c0 -17 -22 -14 -28 4 -2 7 3 12 12 12 9 0 16 -7 16 -16z m-28 -167 c5
-63 -1 -127 -12 -127 -4 0 -10 16 -12 37 -6 48 2 143 12 143 4 0 10 -24 12
-53z m158 -117 c0 -5 6 -10 14 -10 9 0 16 -12 18 -32 2 -28 8 -34 31 -36 15
-2 27 -5 27 -8 0 -3 -13 -17 -29 -33 -27 -26 -29 -34 -29 -101 0 -57 -4 -75
-16 -82 -9 -5 -16 -20 -16 -33 0 -22 -5 -25 -32 -25 -44 0 -54 9 -61 52 -3 24
-17 48 -35 65 -25 24 -29 34 -27 73 2 24 -1 54 -5 65 -5 13 -3 27 5 38 15 21
25 22 25 2 0 -8 5 -15 11 -15 7 0 17 -7 24 -17 16 -21 35 -9 35 23 0 15 6 24
15 24 10 0 15 10 15 30 0 20 5 30 15 30 8 0 15 -4 15 -10z m3430 -530 c0 -5
-4 -10 -10 -10 -5 0 -10 5 -10 10 0 6 5 10 10 10 6 0 10 -4 10 -10z m0 -124
c0 -3 -4 -8 -10 -11 -5 -3 -10 -1 -10 4 0 6 5 11 10 11 6 0 10 -2 10 -4z
m-1695 -96 c-3 -5 -15 -10 -26 -10 -10 0 -19 5 -19 10 0 6 12 10 26 10 14 0
23 -4 19 -10z m-1455 -750 c0 -5 -7 -10 -15 -10 -8 0 -15 5 -15 10 0 6 7 10
15 10 8 0 15 -4 15 -10z m250 -230 c0 -27 -3 -30 -30 -30 -27 0 -30 3 -30 30
0 27 3 30 30 30 27 0 30 -3 30 -30z"/>
<path d="M3676 6292 c-2 -4 -1 -14 3 -21 10 -16 61 -4 61 15 0 15 -55 20 -64
6z"/>
<path d="M30 6130 c0 -5 -7 -10 -15 -10 -12 0 -15 -17 -15 -95 0 -75 3 -95 14
-95 8 0 16 5 18 11 2 5 22 13 45 16 36 5 43 9 48 34 4 16 11 29 16 29 5 0 9 9
9 20 0 11 -4 20 -10 20 -5 0 -10 11 -10 24 0 47 -10 56 -56 56 -24 0 -44 -4
-44 -10z"/>
<path d="M4675 5160 c3 -5 8 -10 11 -10 2 0 4 5 4 10 0 6 -5 10 -11 10 -5 0
-7 -4 -4 -10z"/>
<path d="M4690 5130 c0 -5 5 -10 10 -10 6 0 10 5 10 10 0 6 -4 10 -10 10 -5 0
-10 -4 -10 -10z"/>
<path d="M440 5011 c0 -12 6 -21 16 -21 9 0 14 7 12 17 -5 25 -28 28 -28 4z"/>
<path d="M4671 2233 c-1 -16 5 -23 17 -23 10 0 13 3 6 8 -6 4 -14 14 -17 22
-4 10 -6 8 -6 -7z"/>
<path d="M1790 2075 c0 -8 4 -15 10 -15 5 0 7 7 4 15 -4 8 -8 15 -10 15 -2 0
-4 -7 -4 -15z"/>
<path d="M3180 2080 c0 -5 7 -7 15 -4 8 4 15 8 15 10 0 2 -7 4 -15 4 -8 0 -15
-4 -15 -10z"/>
<path d="M3248 1713 c6 -2 18 -2 25 0 6 3 1 5 -13 5 -14 0 -19 -2 -12 -5z"/>
<path d="M2280 1016 c0 -11 10 -16 31 -16 38 0 35 24 -4 28 -19 2 -27 -1 -27
-12z"/>
<path d="M2025 989 c-9 -14 -4 -18 31 -20 51 -3 57 -1 40 16 -17 17 -62 20
-71 4z"/>
<path d="M2630 830 c10 -6 11 -10 3 -10 -7 0 -13 -9 -13 -21 0 -15 5 -19 15
-15 10 3 15 -1 15 -13 0 -21 47 -38 63 -22 5 5 16 7 23 4 8 -3 14 1 14 11 0 9
7 19 15 22 23 9 6 26 -23 24 -49 -4 -62 0 -62 15 0 10 -10 15 -32 15 -25 0
-29 -3 -18 -10z"/>
</g>
</svg>
